<mxfile host="Electron" agent="Mozilla/5.0 (Windows NT 10.0; Win64; x64) AppleWebKit/537.36 (KHTML, like Gecko) draw.io/27.0.9 Chrome/134.0.6998.205 Electron/35.4.0 Safari/537.36" version="27.0.9">
  <diagram name="Page-1" id="L6F0SyErH07lF6oLDJ6X">
    <mxGraphModel dx="2066" dy="2370" grid="1" gridSize="10" guides="1" tooltips="1" connect="1" arrows="1" fold="1" page="1" pageScale="1" pageWidth="827" pageHeight="1169" math="0" shadow="0">
      <root>
        <mxCell id="0" />
        <mxCell id="1" parent="0" />
        <mxCell id="b-uJt708JkjbCMhIFB3s-37" value="" style="rounded=0;whiteSpace=wrap;html=1;" vertex="1" parent="1">
          <mxGeometry x="164" y="-80" width="493" height="280" as="geometry" />
        </mxCell>
        <mxCell id="b-uJt708JkjbCMhIFB3s-21" value="" style="rounded=0;whiteSpace=wrap;html=1;" vertex="1" parent="1">
          <mxGeometry x="167" y="532.25" width="493" height="297.75" as="geometry" />
        </mxCell>
        <mxCell id="b-uJt708JkjbCMhIFB3s-2" value="" style="rounded=0;whiteSpace=wrap;html=1;" vertex="1" parent="1">
          <mxGeometry x="164" y="230" width="496" height="280" as="geometry" />
        </mxCell>
        <mxCell id="b-uJt708JkjbCMhIFB3s-53" value="" style="edgeStyle=orthogonalEdgeStyle;rounded=0;orthogonalLoop=1;jettySize=auto;html=1;" edge="1" parent="1" source="b-uJt708JkjbCMhIFB3s-3" target="b-uJt708JkjbCMhIFB3s-7">
          <mxGeometry relative="1" as="geometry" />
        </mxCell>
        <mxCell id="b-uJt708JkjbCMhIFB3s-61" style="edgeStyle=orthogonalEdgeStyle;rounded=0;orthogonalLoop=1;jettySize=auto;html=1;entryX=0;entryY=0.5;entryDx=0;entryDy=0;" edge="1" parent="1" source="b-uJt708JkjbCMhIFB3s-3" target="b-uJt708JkjbCMhIFB3s-39">
          <mxGeometry relative="1" as="geometry">
            <Array as="points">
              <mxPoint x="200" y="130" />
              <mxPoint x="200" y="20" />
            </Array>
          </mxGeometry>
        </mxCell>
        <mxCell id="b-uJt708JkjbCMhIFB3s-3" value="Kreditoren&lt;br&gt;(Lieferanten)" style="rounded=0;whiteSpace=wrap;html=1;" vertex="1" parent="1">
          <mxGeometry x="220" y="100" width="120" height="60" as="geometry" />
        </mxCell>
        <mxCell id="b-uJt708JkjbCMhIFB3s-5" value="Debitoren&lt;br&gt;(Kunden)" style="rounded=0;whiteSpace=wrap;html=1;" vertex="1" parent="1">
          <mxGeometry x="10" y="400" width="120" height="60" as="geometry" />
        </mxCell>
        <mxCell id="b-uJt708JkjbCMhIFB3s-59" style="edgeStyle=orthogonalEdgeStyle;rounded=0;orthogonalLoop=1;jettySize=auto;html=1;" edge="1" parent="1" source="b-uJt708JkjbCMhIFB3s-7" target="b-uJt708JkjbCMhIFB3s-42">
          <mxGeometry relative="1" as="geometry" />
        </mxCell>
        <mxCell id="b-uJt708JkjbCMhIFB3s-7" value="Liefern Artikel" style="ellipse;whiteSpace=wrap;html=1;aspect=fixed;" vertex="1" parent="1">
          <mxGeometry x="240" y="260" width="80" height="80" as="geometry" />
        </mxCell>
        <mxCell id="b-uJt708JkjbCMhIFB3s-19" style="edgeStyle=orthogonalEdgeStyle;rounded=0;orthogonalLoop=1;jettySize=auto;html=1;" edge="1" parent="1" source="b-uJt708JkjbCMhIFB3s-13" target="b-uJt708JkjbCMhIFB3s-14">
          <mxGeometry relative="1" as="geometry">
            <Array as="points">
              <mxPoint x="420" y="430" />
            </Array>
          </mxGeometry>
        </mxCell>
        <mxCell id="b-uJt708JkjbCMhIFB3s-34" style="edgeStyle=orthogonalEdgeStyle;rounded=0;orthogonalLoop=1;jettySize=auto;html=1;entryX=0.5;entryY=0;entryDx=0;entryDy=0;" edge="1" parent="1" source="b-uJt708JkjbCMhIFB3s-13" target="b-uJt708JkjbCMhIFB3s-23">
          <mxGeometry relative="1" as="geometry">
            <Array as="points">
              <mxPoint x="520" y="370" />
              <mxPoint x="520" y="550" />
              <mxPoint x="340" y="550" />
            </Array>
          </mxGeometry>
        </mxCell>
        <mxCell id="b-uJt708JkjbCMhIFB3s-13" value="Artikel" style="whiteSpace=wrap;html=1;aspect=fixed;" vertex="1" parent="1">
          <mxGeometry x="380" y="330" width="80" height="80" as="geometry" />
        </mxCell>
        <mxCell id="b-uJt708JkjbCMhIFB3s-26" style="edgeStyle=orthogonalEdgeStyle;rounded=0;orthogonalLoop=1;jettySize=auto;html=1;" edge="1" parent="1" source="b-uJt708JkjbCMhIFB3s-13" target="b-uJt708JkjbCMhIFB3s-24">
          <mxGeometry relative="1" as="geometry" />
        </mxCell>
        <mxCell id="b-uJt708JkjbCMhIFB3s-15" value="" style="edgeStyle=orthogonalEdgeStyle;rounded=0;orthogonalLoop=1;jettySize=auto;html=1;" edge="1" parent="1" source="b-uJt708JkjbCMhIFB3s-14" target="b-uJt708JkjbCMhIFB3s-5">
          <mxGeometry relative="1" as="geometry" />
        </mxCell>
        <mxCell id="b-uJt708JkjbCMhIFB3s-14" value="Bekommen Artikel" style="ellipse;whiteSpace=wrap;html=1;aspect=fixed;" vertex="1" parent="1">
          <mxGeometry x="240" y="390" width="80" height="80" as="geometry" />
        </mxCell>
        <mxCell id="b-uJt708JkjbCMhIFB3s-18" style="edgeStyle=orthogonalEdgeStyle;rounded=0;orthogonalLoop=1;jettySize=auto;html=1;entryX=0;entryY=0.5;entryDx=0;entryDy=0;" edge="1" parent="1" source="b-uJt708JkjbCMhIFB3s-7" target="b-uJt708JkjbCMhIFB3s-13">
          <mxGeometry relative="1" as="geometry">
            <Array as="points">
              <mxPoint x="280" y="370" />
            </Array>
          </mxGeometry>
        </mxCell>
        <mxCell id="b-uJt708JkjbCMhIFB3s-20" value="Finanzmodul" style="text;html=1;align=center;verticalAlign=middle;whiteSpace=wrap;rounded=0;" vertex="1" parent="1">
          <mxGeometry x="180" y="230" width="60" height="30" as="geometry" />
        </mxCell>
        <mxCell id="b-uJt708JkjbCMhIFB3s-22" value="Lagermodul" style="text;html=1;align=center;verticalAlign=middle;whiteSpace=wrap;rounded=0;" vertex="1" parent="1">
          <mxGeometry x="180" y="530" width="60" height="30" as="geometry" />
        </mxCell>
        <mxCell id="b-uJt708JkjbCMhIFB3s-32" value="" style="edgeStyle=orthogonalEdgeStyle;rounded=0;orthogonalLoop=1;jettySize=auto;html=1;" edge="1" parent="1" source="b-uJt708JkjbCMhIFB3s-23" target="b-uJt708JkjbCMhIFB3s-31">
          <mxGeometry relative="1" as="geometry" />
        </mxCell>
        <mxCell id="b-uJt708JkjbCMhIFB3s-23" value="Lagerort" style="whiteSpace=wrap;html=1;aspect=fixed;" vertex="1" parent="1">
          <mxGeometry x="300" y="590" width="80" height="80" as="geometry" />
        </mxCell>
        <mxCell id="b-uJt708JkjbCMhIFB3s-28" style="edgeStyle=orthogonalEdgeStyle;rounded=0;orthogonalLoop=1;jettySize=auto;html=1;entryX=0.5;entryY=0;entryDx=0;entryDy=0;" edge="1" parent="1" source="b-uJt708JkjbCMhIFB3s-24" target="b-uJt708JkjbCMhIFB3s-27">
          <mxGeometry relative="1" as="geometry" />
        </mxCell>
        <mxCell id="b-uJt708JkjbCMhIFB3s-24" value="Lagermenge" style="whiteSpace=wrap;html=1;aspect=fixed;" vertex="1" parent="1">
          <mxGeometry x="480" y="590" width="80" height="80" as="geometry" />
        </mxCell>
        <mxCell id="b-uJt708JkjbCMhIFB3s-30" style="edgeStyle=orthogonalEdgeStyle;rounded=0;orthogonalLoop=1;jettySize=auto;html=1;entryX=1;entryY=0.5;entryDx=0;entryDy=0;" edge="1" parent="1" source="b-uJt708JkjbCMhIFB3s-27" target="b-uJt708JkjbCMhIFB3s-24">
          <mxGeometry relative="1" as="geometry">
            <Array as="points">
              <mxPoint x="580" y="750" />
              <mxPoint x="580" y="630" />
            </Array>
          </mxGeometry>
        </mxCell>
        <mxCell id="b-uJt708JkjbCMhIFB3s-27" value="verwaltet stÃ¼ckzahl" style="ellipse;whiteSpace=wrap;html=1;aspect=fixed;" vertex="1" parent="1">
          <mxGeometry x="480" y="710" width="80" height="80" as="geometry" />
        </mxCell>
        <mxCell id="b-uJt708JkjbCMhIFB3s-33" style="edgeStyle=orthogonalEdgeStyle;rounded=0;orthogonalLoop=1;jettySize=auto;html=1;entryX=1;entryY=0.5;entryDx=0;entryDy=0;" edge="1" parent="1" source="b-uJt708JkjbCMhIFB3s-31" target="b-uJt708JkjbCMhIFB3s-23">
          <mxGeometry relative="1" as="geometry">
            <Array as="points">
              <mxPoint x="400" y="750" />
              <mxPoint x="400" y="630" />
            </Array>
          </mxGeometry>
        </mxCell>
        <mxCell id="b-uJt708JkjbCMhIFB3s-31" value="verwaltet Lagerort" style="ellipse;whiteSpace=wrap;html=1;aspect=fixed;" vertex="1" parent="1">
          <mxGeometry x="300" y="710" width="80" height="80" as="geometry" />
        </mxCell>
        <mxCell id="b-uJt708JkjbCMhIFB3s-38" value="Einkaufsmodul" style="text;html=1;align=center;verticalAlign=middle;whiteSpace=wrap;rounded=0;" vertex="1" parent="1">
          <mxGeometry x="180" y="-80" width="60" height="30" as="geometry" />
        </mxCell>
        <mxCell id="b-uJt708JkjbCMhIFB3s-60" value="" style="edgeStyle=orthogonalEdgeStyle;rounded=0;orthogonalLoop=1;jettySize=auto;html=1;" edge="1" parent="1" source="b-uJt708JkjbCMhIFB3s-39" target="b-uJt708JkjbCMhIFB3s-3">
          <mxGeometry relative="1" as="geometry" />
        </mxCell>
        <mxCell id="b-uJt708JkjbCMhIFB3s-39" value="verwaltet Kreditoren" style="ellipse;whiteSpace=wrap;html=1;aspect=fixed;" vertex="1" parent="1">
          <mxGeometry x="240" y="-20" width="80" height="80" as="geometry" />
        </mxCell>
        <mxCell id="b-uJt708JkjbCMhIFB3s-57" style="edgeStyle=orthogonalEdgeStyle;rounded=0;orthogonalLoop=1;jettySize=auto;html=1;entryX=1;entryY=0.5;entryDx=0;entryDy=0;" edge="1" parent="1" source="b-uJt708JkjbCMhIFB3s-42" target="b-uJt708JkjbCMhIFB3s-43">
          <mxGeometry relative="1" as="geometry">
            <Array as="points">
              <mxPoint x="490" y="130" />
              <mxPoint x="490" y="20" />
            </Array>
          </mxGeometry>
        </mxCell>
        <mxCell id="b-uJt708JkjbCMhIFB3s-58" value="" style="edgeStyle=orthogonalEdgeStyle;rounded=0;orthogonalLoop=1;jettySize=auto;html=1;" edge="1" parent="1" source="b-uJt708JkjbCMhIFB3s-42" target="b-uJt708JkjbCMhIFB3s-3">
          <mxGeometry relative="1" as="geometry" />
        </mxCell>
        <mxCell id="b-uJt708JkjbCMhIFB3s-42" value="Bestellung" style="whiteSpace=wrap;html=1;aspect=fixed;" vertex="1" parent="1">
          <mxGeometry x="390" y="90" width="80" height="80" as="geometry" />
        </mxCell>
        <mxCell id="b-uJt708JkjbCMhIFB3s-56" value="" style="edgeStyle=orthogonalEdgeStyle;rounded=0;orthogonalLoop=1;jettySize=auto;html=1;" edge="1" parent="1" source="b-uJt708JkjbCMhIFB3s-43" target="b-uJt708JkjbCMhIFB3s-42">
          <mxGeometry relative="1" as="geometry" />
        </mxCell>
        <mxCell id="b-uJt708JkjbCMhIFB3s-43" value="verwaltet Bestellung" style="ellipse;whiteSpace=wrap;html=1;aspect=fixed;" vertex="1" parent="1">
          <mxGeometry x="390" y="-20" width="80" height="80" as="geometry" />
        </mxCell>
        <mxCell id="b-uJt708JkjbCMhIFB3s-63" value="" style="edgeStyle=orthogonalEdgeStyle;rounded=0;orthogonalLoop=1;jettySize=auto;html=1;" edge="1" parent="1" source="b-uJt708JkjbCMhIFB3s-62" target="b-uJt708JkjbCMhIFB3s-7">
          <mxGeometry relative="1" as="geometry" />
        </mxCell>
        <mxCell id="b-uJt708JkjbCMhIFB3s-62" value="Kreditoren&lt;br&gt;(Lieferanten)" style="rounded=0;whiteSpace=wrap;html=1;" vertex="1" parent="1">
          <mxGeometry x="10" y="270" width="120" height="60" as="geometry" />
        </mxCell>
      </root>
    </mxGraphModel>
  </diagram>
</mxfile>
